<?xml version="1.0" standalone="yes"?>

<svg version="1.1" viewBox="0.0 0.0 960.0 540.0" fill="none" stroke="none" stroke-linecap="square" stroke-miterlimit="10" xmlns="http://www.w3.org/2000/svg" xmlns:xlink="http://www.w3.org/1999/xlink"><clipPath id="g10312da0b5_0_239.0"><path d="m0 0l960.0 0l0 540.0l-960.0 0l0 -540.0z" clip-rule="nonzero"></path></clipPath><g clip-path="url(#g10312da0b5_0_239.0)"><path fill="#000000" fill-opacity="0.0" d="m0 0l960.0 0l0 540.0l-960.0 0z" fill-rule="nonzero"></path><path fill="#000000" d="m382.09973 280.70078l0 0c0 -59.4467 48.1911 -107.63779 107.63782 -107.63779l0 0c28.547302 0 55.925415 11.340378 76.11139 31.526382c20.186035 20.186005 31.526367 47.564102 31.526367 76.111404l0 0c0 59.446716 -48.19104 107.63782 -107.63776 107.63782l0 0c-59.446716 0 -107.63782 -48.1911 -107.63782 -107.63782z" fill-rule="nonzero"></path><path stroke="#000000" stroke-width="1.0" stroke-linejoin="round" stroke-linecap="butt" d="m382.09973 280.70078l0 0c0 -59.4467 48.1911 -107.63779 107.63782 -107.63779l0 0c28.547302 0 55.925415 11.340378 76.11139 31.526382c20.186035 20.186005 31.526367 47.564102 31.526367 76.111404l0 0c0 59.446716 -48.19104 107.63782 -107.63776 107.63782l0 0c-59.446716 0 -107.63782 -48.1911 -107.63782 -107.63782z" fill-rule="nonzero"></path><path fill="#000000" fill-opacity="0.0" d="m398.1942 280.70078l0 0c0 -50.557953 40.98535 -91.54329 91.543304 -91.54329l0 0c24.27884 0 47.5632 9.644714 64.73093 26.812408c17.167664 17.167694 26.812378 40.452103 26.812378 64.73088l0 0c0 50.557983 -40.98529 91.543304 -91.543304 91.543304l0 0c-50.557953 0 -91.543304 -40.98532 -91.543304 -91.543304z" fill-rule="nonzero"></path><path stroke="#ffffff" stroke-width="2.0" stroke-linejoin="round" stroke-linecap="butt" stroke-dasharray="2.0,6.0" d="m398.1942 280.70078l0 0c0 -50.557953 40.98535 -91.54329 91.543304 -91.54329l0 0c24.27884 0 47.5632 9.644714 64.73093 26.812408c17.167664 17.167694 26.812378 40.452103 26.812378 64.73088l0 0c0 50.557983 -40.98529 91.543304 -91.543304 91.543304l0 0c-50.557953 0 -91.543304 -40.98532 -91.543304 -91.543304z" fill-rule="nonzero"></path><path fill="#ffffff" d="m490.71268 261.88132c24.202301 -58.91063 118.59134 0 0 75.74222c-118.59131 -75.74222 -24.202301 -134.65285 0 -75.74222z" fill-rule="nonzero"></path><path stroke="#000000" stroke-width="1.0" stroke-linejoin="round" stroke-linecap="butt" d="m490.71268 261.88132c24.202301 -58.91063 118.59134 0 0 75.74222c-118.59131 -75.74222 -24.202301 -134.65285 0 -75.74222z" fill-rule="nonzero"></path><path fill="#000000" fill-opacity="0.0" d="m467.18927 307.63687l0 0" fill-rule="nonzero"></path><path stroke="#595959" stroke-width="1.0" stroke-linejoin="round" stroke-linecap="butt" d="m467.18927 307.63687l0 0" fill-rule="nonzero"></path><path fill="#000000" fill-opacity="0.0" d="m455.20102 222.4077l0 130.69246" fill-rule="nonzero"></path><path stroke="#000000" stroke-width="8.0" stroke-linejoin="round" stroke-linecap="butt" d="m455.20102 222.4077l0 130.69246" fill-rule="nonzero"></path><path fill="#ffffff" d="m448.8275 287.9939l0 0c0 -0.9538574 0.7732239 -1.7270813 1.7270508 -1.7270813l9.301788 0c0.45803833 0 0.89730835 0.1819458 1.2212219 0.5058594c0.32388306 0.32388306 0.50582886 0.7631531 0.50582886 1.2212219l0 6.9080505c0 0.9538269 -0.7732239 1.7270813 -1.7270508 1.7270813l-9.301788 0l0 0c-0.9538269 0 -1.7270508 -0.7732544 -1.7270508 -1.7270813z" fill-rule="nonzero"></path><path stroke="#000000" stroke-width="1.0" stroke-linejoin="round" stroke-linecap="butt" d="m448.8275 287.9939l0 0c0 -0.9538574 0.7732239 -1.7270813 1.7270508 -1.7270813l9.301788 0c0.45803833 0 0.89730835 0.1819458 1.2212219 0.5058594c0.32388306 0.32388306 0.50582886 0.7631531 0.50582886 1.2212219l0 6.9080505c0 0.9538269 -0.7732239 1.7270813 -1.7270508 1.7270813l-9.301788 0l0 0c-0.9538269 0 -1.7270508 -0.7732544 -1.7270508 -1.7270813z" fill-rule="nonzero"></path><path fill="#000000" d="m451.62277 288.5623l7.149597 0l0 5.763794l-7.149597 0z" fill-rule="nonzero"></path><path stroke="#000000" stroke-width="1.0" stroke-linejoin="round" stroke-linecap="butt" d="m451.62277 288.5623l7.149597 0l0 5.763794l-7.149597 0z" fill-rule="nonzero"></path><path fill="#000000" fill-opacity="0.0" d="m524.27313 222.4077l1.5285645 116.58797" fill-rule="nonzero"></path><path stroke="#000000" stroke-width="8.0" stroke-linejoin="round" stroke-linecap="butt" d="m524.27313 222.4077l1.5285645 116.58797" fill-rule="nonzero"></path><path fill="#ffffff" d="m518.8724 287.99915l0 0c0 -0.9538574 0.77319336 -1.7270813 1.7270508 -1.7270813l9.301758 0c0.45806885 0 0.89733887 0.1819458 1.2211914 0.5058594c0.32391357 0.32388306 0.5058594 0.7631531 0.5058594 1.2212219l0 6.9080505c0 0.9538269 -0.77319336 1.7270813 -1.7270508 1.7270813l-9.301758 0l0 0c-0.9538574 0 -1.7270508 -0.7732544 -1.7270508 -1.7270813z" fill-rule="nonzero"></path><path stroke="#000000" stroke-width="1.0" stroke-linejoin="round" stroke-linecap="butt" d="m518.8724 287.99915l0 0c0 -0.9538574 0.77319336 -1.7270813 1.7270508 -1.7270813l9.301758 0c0.45806885 0 0.89733887 0.1819458 1.2211914 0.5058594c0.32391357 0.32388306 0.5058594 0.7631531 0.5058594 1.2212219l0 6.9080505c0 0.9538269 -0.77319336 1.7270813 -1.7270508 1.7270813l-9.301758 0l0 0c-0.9538574 0 -1.7270508 -0.7732544 -1.7270508 -1.7270813z" fill-rule="nonzero"></path><path fill="#000000" d="m484.51648 265.24316l0 0c0 -0.7911072 0.6413269 -1.4324341 1.4324341 -1.4324341l6.840149 0c0.3798828 0 0.7442322 0.15093994 1.0128479 0.41955566c0.26864624 0.26864624 0.41955566 0.6329651 0.41955566 1.0128784l0 5.729492c0 0.7911072 -0.6412964 1.4324036 -1.4324036 1.4324036l-6.840149 0c-0.7911072 0 -1.4324341 -0.6412964 -1.4324341 -1.4324036z" fill-rule="nonzero"></path><path stroke="#000000" stroke-width="1.0" stroke-linejoin="round" stroke-linecap="butt" d="m484.51648 265.24316l0 0c0 -0.7911072 0.6413269 -1.4324341 1.4324341 -1.4324341l6.840149 0c0.3798828 0 0.7442322 0.15093994 1.0128479 0.41955566c0.26864624 0.26864624 0.41955566 0.6329651 0.41955566 1.0128784l0 5.729492c0 0.7911072 -0.6412964 1.4324036 -1.4324036 1.4324036l-6.840149 0c-0.7911072 0 -1.4324341 -0.6412964 -1.4324341 -1.4324036z" fill-rule="nonzero"></path><path fill="#000000" d="m508.64508 279.03925l-18.907532 -10.931335l18.907532 -10.931335z" fill-rule="nonzero"></path><path stroke="#000000" stroke-width="1.0" stroke-linejoin="round" stroke-linecap="butt" d="m508.64508 279.03925l-18.907532 -10.931335l18.907532 -10.931335z" fill-rule="nonzero"></path><path fill="#000000" d="m470.83002 257.17657l18.907532 10.931335l-18.907532 10.931335z" fill-rule="nonzero"></path><path stroke="#000000" stroke-width="1.0" stroke-linejoin="round" stroke-linecap="butt" d="m470.83002 257.17657l18.907532 10.931335l-18.907532 10.931335z" fill-rule="nonzero"></path><path fill="#000000" d="m521.6716 288.56622l7.149597 0l0 5.763794l-7.149597 0z" fill-rule="nonzero"></path><path stroke="#000000" stroke-width="1.0" stroke-linejoin="round" stroke-linecap="butt" d="m521.6716 288.56622l7.149597 0l0 5.763794l-7.149597 0z" fill-rule="nonzero"></path><path fill="#000000" d="m484.33496 264.6561l0 0c0 -0.9529419 0.772522 -1.7254639 1.7254639 -1.7254639l9.298737 0c0.45761108 0 0.8964844 0.18179321 1.2200623 0.5053711c0.3236084 0.3236084 0.5054016 0.7624817 0.5054016 1.2200928l0 6.901642c0 0.9529419 -0.772522 1.7254639 -1.7254639 1.7254639l-9.298737 0l0 0c-0.9529419 0 -1.7254639 -0.772522 -1.7254639 -1.7254639z" fill-rule="nonzero"></path><path stroke="#000000" stroke-width="2.0" stroke-linejoin="round" stroke-linecap="butt" d="m484.33496 264.6561l0 0c0 -0.9529419 0.772522 -1.7254639 1.7254639 -1.7254639l9.298737 0c0.45761108 0 0.8964844 0.18179321 1.2200623 0.5053711c0.3236084 0.3236084 0.5054016 0.7624817 0.5054016 1.2200928l0 6.901642c0 0.9529419 -0.772522 1.7254639 -1.7254639 1.7254639l-9.298737 0l0 0c-0.9529419 0 -1.7254639 -0.772522 -1.7254639 -1.7254639z" fill-rule="nonzero"></path><path fill="#000000" fill-opacity="0.0" d="m483.73227 264.31763l0 0c0 -1.0466003 0.8484497 -1.89505 1.89505 -1.89505l10.194153 0c0.5026245 0 0.98461914 0.199646 1.3400269 0.5550537c0.3553772 0.3553772 0.5550232 0.83740234 0.5550232 1.3399963l0 7.5799866c0 1.0466003 -0.8484192 1.89505 -1.89505 1.89505l-10.194153 0l0 0c-1.0466003 0 -1.89505 -0.8484497 -1.89505 -1.89505z" fill-rule="nonzero"></path><path stroke="#ffffff" stroke-width="2.0" stroke-linejoin="round" stroke-linecap="butt" d="m483.73227 264.31763l0 0c0 -1.0466003 0.8484497 -1.89505 1.89505 -1.89505l10.194153 0c0.5026245 0 0.98461914 0.199646 1.3400269 0.5550537c0.3553772 0.3553772 0.5550232 0.83740234 0.5550232 1.3399963l0 7.5799866c0 1.0466003 -0.8484192 1.89505 -1.89505 1.89505l-10.194153 0l0 0c-1.0466003 0 -1.89505 -0.8484497 -1.89505 -1.89505z" fill-rule="nonzero"></path></g></svg>

