<?xml version="1.0" standalone="yes"?>

<svg version="1.1" viewBox="0.0 0.0 960.0 540.0" fill="none" stroke="none" stroke-linecap="square" stroke-miterlimit="10" xmlns="http://www.w3.org/2000/svg" xmlns:xlink="http://www.w3.org/1999/xlink"><clipPath id="g10312da0b5_0_239.0"><path d="m0 0l960.0 0l0 540.0l-960.0 0l0 -540.0z" clip-rule="nonzero"></path></clipPath><g clip-path="url(#g10312da0b5_0_239.0)"><path fill="#ffffff" d="m0 0l960.0 0l0 540.0l-960.0 0z" fill-rule="nonzero"></path><path fill="#000000" d="m339.0551 270.0l0 0c0 -77.841705 63.10318 -140.94489 140.94489 -140.94489l0 0c37.38092 0 73.230774 14.849518 99.663086 41.2818c26.432312 26.432297 41.2818 62.28218 41.2818 99.663086l0 0c0 77.841705 -63.10315 140.94489 -140.94489 140.94489l0 0c-77.841705 0 -140.94489 -63.10318 -140.94489 -140.94489z" fill-rule="nonzero"></path><path stroke="#000000" stroke-width="1.0" stroke-linejoin="round" stroke-linecap="butt" d="m339.0551 270.0l0 0c0 -77.841705 63.10318 -140.94489 140.94489 -140.94489l0 0c37.38092 0 73.230774 14.849518 99.663086 41.2818c26.432312 26.432297 41.2818 62.28218 41.2818 99.663086l0 0c0 77.841705 -63.10315 140.94489 -140.94489 140.94489l0 0c-77.841705 0 -140.94489 -63.10318 -140.94489 -140.94489z" fill-rule="nonzero"></path><path fill="#ffffff" d="m480.0 240.21654c27.992126 -67.813644 137.16144 0 0 87.18898c-137.1614 -87.18898 -27.992126 -155.00262 0 -87.18898z" fill-rule="nonzero"></path><path stroke="#000000" stroke-width="1.0" stroke-linejoin="round" stroke-linecap="butt" d="m480.0 240.21654c27.992126 -67.813644 137.16144 0 0 87.18898c-137.1614 -87.18898 -27.992126 -155.00262 0 -87.18898z" fill-rule="nonzero"></path><path fill="#000000" fill-opacity="0.0" d="m458.67584 276.35696l0 0" fill-rule="nonzero"></path><path stroke="#595959" stroke-width="1.0" stroke-linejoin="round" stroke-linecap="butt" d="m458.67584 276.35696l0 0" fill-rule="nonzero"></path><path fill="#000000" fill-opacity="0.0" d="m447.8071 199.08661l1.7637634 141.82678" fill-rule="nonzero"></path><path stroke="#000000" stroke-width="8.0" stroke-linejoin="round" stroke-linecap="butt" d="m447.8071 199.08661l1.7637634 141.82678" fill-rule="nonzero"></path><path fill="#ffffff" d="m442.90945 302.13388l0 0c0 -0.86395264 0.7003784 -1.564331 1.564331 -1.564331l8.430389 0c0.41488647 0 0.81277466 0.16482544 1.1061401 0.45819092c0.29336548 0.29336548 0.45819092 0.69125366 0.45819092 1.1061401l0 6.2571716c0 0.86395264 -0.7003784 1.564331 -1.564331 1.564331l-8.430389 0l0 0c-0.86395264 0 -1.564331 -0.7003784 -1.564331 -1.564331z" fill-rule="nonzero"></path><path stroke="#000000" stroke-width="1.0" stroke-linejoin="round" stroke-linecap="butt" d="m442.90945 302.13388l0 0c0 -0.86395264 0.7003784 -1.564331 1.564331 -1.564331l8.430389 0c0.41488647 0 0.81277466 0.16482544 1.1061401 0.45819092c0.29336548 0.29336548 0.45819092 0.69125366 0.45819092 1.1061401l0 6.2571716c0 0.86395264 -0.7003784 1.564331 -1.564331 1.564331l-8.430389 0l0 0c-0.86395264 0 -1.564331 -0.7003784 -1.564331 -1.564331z" fill-rule="nonzero"></path><path fill="#000000" d="m445.4449 302.6483l6.4881897 0l0 5.228363l-6.4881897 0z" fill-rule="nonzero"></path><path stroke="#000000" stroke-width="1.0" stroke-linejoin="round" stroke-linecap="butt" d="m445.4449 302.6483l6.4881897 0l0 5.228363l-6.4881897 0z" fill-rule="nonzero"></path><path fill="#000000" fill-opacity="0.0" d="m510.42914 199.08661l1.763794 141.82678" fill-rule="nonzero"></path><path stroke="#000000" stroke-width="8.0" stroke-linejoin="round" stroke-linecap="butt" d="m510.42914 199.08661l1.763794 141.82678" fill-rule="nonzero"></path><path fill="#ffffff" d="m505.5315 302.13388l0 0c0 -0.86395264 0.7003784 -1.564331 1.564331 -1.564331l8.43042 0c0.41485596 0 0.81274414 0.16482544 1.1061401 0.45819092c0.29333496 0.29336548 0.45819092 0.69125366 0.45819092 1.1061401l0 6.2571716c0 0.86395264 -0.7003784 1.564331 -1.564331 1.564331l-8.43042 0l0 0c-0.86395264 0 -1.564331 -0.7003784 -1.564331 -1.564331z" fill-rule="nonzero"></path><path stroke="#000000" stroke-width="1.0" stroke-linejoin="round" stroke-linecap="butt" d="m505.5315 302.13388l0 0c0 -0.86395264 0.7003784 -1.564331 1.564331 -1.564331l8.43042 0c0.41485596 0 0.81274414 0.16482544 1.1061401 0.45819092c0.29333496 0.29336548 0.45819092 0.69125366 0.45819092 1.1061401l0 6.2571716c0 0.86395264 -0.7003784 1.564331 -1.564331 1.564331l-8.43042 0l0 0c-0.86395264 0 -1.564331 -0.7003784 -1.564331 -1.564331z" fill-rule="nonzero"></path><path fill="#000000" d="m474.71204 237.6178l0 0c0 -0.8012848 0.64956665 -1.4508362 1.4508362 -1.4508362l6.928131 0c0.38479614 0 0.7538147 0.15284729 1.0259094 0.42494202c0.27209473 0.27207947 0.42492676 0.6411133 0.42492676 1.0258942l0 5.803192c0 0.8012848 -0.64953613 1.4508514 -1.4508362 1.4508514l-6.928131 0c-0.80126953 0 -1.4508362 -0.64956665 -1.4508362 -1.4508514z" fill-rule="nonzero"></path><path stroke="#000000" stroke-width="1.0" stroke-linejoin="round" stroke-linecap="butt" d="m474.71204 237.6178l0 0c0 -0.8012848 0.64956665 -1.4508362 1.4508362 -1.4508362l6.928131 0c0.38479614 0 0.7538147 0.15284729 1.0259094 0.42494202c0.27209473 0.27207947 0.42492676 0.6411133 0.42492676 1.0258942l0 5.803192c0 0.8012848 -0.64953613 1.4508514 -1.4508362 1.4508514l-6.928131 0c-0.80126953 0 -1.4508362 -0.64956665 -1.4508362 -1.4508514z" fill-rule="nonzero"></path><path fill="#000000" d="m499.151 251.59134l-19.150757 -11.071945l19.150757 -11.071945z" fill-rule="nonzero"></path><path stroke="#000000" stroke-width="1.0" stroke-linejoin="round" stroke-linecap="butt" d="m499.151 251.59134l-19.150757 -11.071945l19.150757 -11.071945z" fill-rule="nonzero"></path><path fill="#000000" d="m460.84952 229.44745l19.150726 11.071945l-19.150726 11.071945z" fill-rule="nonzero"></path><path stroke="#000000" stroke-width="1.0" stroke-linejoin="round" stroke-linecap="butt" d="m460.84952 229.44745l19.150726 11.071945l-19.150726 11.071945z" fill-rule="nonzero"></path><path fill="#000000" d="m508.06693 302.6483l6.4881897 0l0 5.228363l-6.4881897 0z" fill-rule="nonzero"></path><path stroke="#000000" stroke-width="1.0" stroke-linejoin="round" stroke-linecap="butt" d="m508.06693 302.6483l6.4881897 0l0 5.228363l-6.4881897 0z" fill-rule="nonzero"></path><path fill="#000000" fill-opacity="0.0" d="m474.22046 237.3898l0 0c0 -0.8639679 0.7003784 -1.5643463 1.5643616 -1.5643463l8.430359 0c0.41488647 0 0.8128052 0.16482544 1.1061707 0.45819092c0.29336548 0.29336548 0.45819092 0.6912689 0.45819092 1.1061554l0 6.2571564c0 0.86395264 -0.7003784 1.564331 -1.5643616 1.564331l-8.430359 0l0 0c-0.86398315 0 -1.5643616 -0.7003784 -1.5643616 -1.564331z" fill-rule="nonzero"></path><path stroke="#000000" stroke-width="2.0" stroke-linejoin="round" stroke-linecap="butt" d="m474.22046 237.3898l0 0c0 -0.8639679 0.7003784 -1.5643463 1.5643616 -1.5643463l8.430359 0c0.41488647 0 0.8128052 0.16482544 1.1061707 0.45819092c0.29336548 0.29336548 0.45819092 0.6912689 0.45819092 1.1061554l0 6.2571564c0 0.86395264 -0.7003784 1.564331 -1.5643616 1.564331l-8.430359 0l0 0c-0.86398315 0 -1.5643616 -0.7003784 -1.5643616 -1.564331z" fill-rule="nonzero"></path><path fill="#000000" fill-opacity="0.0" d="m473.73358 236.94885l0 0c0 -0.9857178 0.7991028 -1.7848053 1.7848206 -1.7848053l8.96582 0c0.47335815 0 0.92733765 0.18803406 1.2620544 0.52275085c0.3347168 0.3347168 0.5227661 0.7886963 0.5227661 1.2620544l0 7.139038c0 0.9857178 -0.7991028 1.7848053 -1.7848206 1.7848053l-8.96582 0c-0.9857178 0 -1.7848206 -0.7990875 -1.7848206 -1.7848053z" fill-rule="nonzero"></path><path stroke="#ffffff" stroke-width="2.0" stroke-linejoin="round" stroke-linecap="butt" d="m473.73358 236.94885l0 0c0 -0.9857178 0.7991028 -1.7848053 1.7848206 -1.7848053l8.96582 0c0.47335815 0 0.92733765 0.18803406 1.2620544 0.52275085c0.3347168 0.3347168 0.5227661 0.7886963 0.5227661 1.2620544l0 7.139038c0 0.9857178 -0.7991028 1.7848053 -1.7848206 1.7848053l-8.96582 0c-0.9857178 0 -1.7848206 -0.7990875 -1.7848206 -1.7848053z" fill-rule="nonzero"></path><path fill="#000000" fill-opacity="0.0" d="m356.55005 270.0009l0 0c0 -68.17891 55.269928 -123.44882 123.44882 -123.44882l0 0c32.74063 0 64.14035 13.00618 87.29147 36.15732c23.151184 23.151154 36.15735 54.550842 36.15735 87.291504l0 0c0 68.178894 -55.26996 123.44882 -123.44882 123.44882l0 0c-68.178894 0 -123.44882 -55.269928 -123.44882 -123.44882z" fill-rule="nonzero"></path><path stroke="#ffffff" stroke-width="2.0" stroke-linejoin="round" stroke-linecap="butt" stroke-dasharray="2.0,6.0" d="m356.55005 270.0009l0 0c0 -68.17891 55.269928 -123.44882 123.44882 -123.44882l0 0c32.74063 0 64.14035 13.00618 87.29147 36.15732c23.151184 23.151154 36.15735 54.550842 36.15735 87.291504l0 0c0 68.178894 -55.26996 123.44882 -123.44882 123.44882l0 0c-68.178894 0 -123.44882 -55.269928 -123.44882 -123.44882z" fill-rule="nonzero"></path></g></svg>

